#!Matlab matrix to amc conversion
:FULLY-SPECIFIED
:DEGREES
1
root 9.287220 16.950000 -34.276200 0.000000 0.000000 0.000000
lowerback 0.000000 0.000000 0.000000
upperback 0.000000 0.000000 0.000000
thorax 0.000000 0.000000 0.000000
lowerneck -16.000000 0.000000 0.000000
upperneck 21.000000 0.000000 0.000000
head 11.000000 0.000000 0.000000
rclavicle 0.000000 0.000000
rhumerus 0.000000 0.000000 0.000000
rradius 0.000000
rwrist 0.000000
rhand 0.000000 0.000000
rfingers 0.000000
rthumb 0.000000 0.000000
lclavicle 0.000000 0.000000
lhumerus 0.000000 0.000000 0.000000
lradius 0.000000
lwrist 0.000000
lhand 0.000000 0.000000
lfingers 0.000000
lthumb 0.000000 0.000000
rfemur 0.000000 0.000000 21.000000
rtibia 0.000000
rfoot 0.000000 0.000000
rtoes 0.000000
lfemur 0.000000 0.000000 -21.000000
ltibia 0.000000
lfoot 0.000000 0.000000
ltoes 0.000000
2
root 9.287220 16.950000 -34.276200 0.973435 1.634016 -0.018211
lowerback -1.319017 1.819436 5.961509
upperback -2.326367 2.484744 0.584986
thorax -1.413055 1.163546 -2.472597
lowerneck -16.367861 0.572378 -1.084964
upperneck 36.782474 2.032103 -1.742890
head 16.203635 0.453997 -0.194410
rclavicle -0.000000 0.000000
rhumerus -32.469028 -5.057158 -76.890879
rradius 36.944399
rwrist -15.222077
rhand -7.049032 12.434647
rfingers 7.125020
rthumb 18.821465 -16.629841
lclavicle -0.000000 0.000000
lhumerus -62.374447 33.233297 45.272814
lradius 22.437802
lwrist -13.493192
lhand 1.119492 20.962439
lfingers 7.125020
lthumb 26.637133 48.925388
rfemur 0.374723 14.472056 29.913229
rtibia 12.828286
rfoot -13.972318 -18.490247
rtoes 1.960327
lfemur -37.350806 -4.308570 -15.296210
ltibia 26.787150
lfoot -19.525917 18.989403
ltoes -11.968423
3
root 9.273270 17.016600 -33.905900 1.136061 1.634016 0.057301
lowerback -1.643287 1.972799 6.047379
upperback -2.559827 2.668851 0.364851
thorax -1.449620 1.244954 -2.748933
lowerneck -16.394589 0.561937 -1.042365
upperneck 36.849859 1.900504 -1.515617
head 16.248675 0.438600 -0.128589
rclavicle -0.000000 0.000000
rhumerus -32.862308 -5.023086 -77.119659
rradius 36.291405
rwrist -14.835202
rhand -7.062189 12.456835
rfingers 7.125020
rthumb 18.808198 -16.611844
lclavicle -0.000000 0.000000
lhumerus -61.830072 32.636061 45.280229
lradius 23.189130
lwrist -11.701734
lhand 0.166793 21.519724
lfingers 7.125020
lthumb 25.723720 49.635146
rfemur 4.117641 14.356964 30.036551
rtibia 10.261960
rfoot -12.196374 -17.455188
rtoes -2.270056
lfemur -37.294379 -6.086495 -14.097891
ltibia 25.223076
lfoot -19.427752 19.436250
ltoes -10.920750
4
root 9.268420 17.025800 -33.555600 1.249833 1.634016 0.101343
lowerback -1.964695 2.114026 6.051380
upperback -2.789946 2.828385 0.142429
thorax -1.486329 1.316891 -3.000338
lowerneck -16.419409 0.550165 -0.994708
upperneck 36.915550 1.766210 -1.290523
head 16.293434 0.422444 -0.065627
rclavicle -0.000000 0.000000
rhumerus -33.258966 -4.987162 -77.348724
rradius 35.650169
rwrist -14.440276
rhand -7.073759 12.484037
rfingers 7.125020
rthumb 18.796497 -16.587995
lclavicle -0.000000 0.000000
lhumerus -61.263015 32.048154 45.293388
lradius 23.932435
lwrist -9.917683
lhand -0.786248 22.066021
lfingers 7.125020
lthumb 24.809646 50.333265
rfemur 7.580005 14.217201 30.101106
rtibia 8.554742
rfoot -10.764659 -16.416662
rtoes -6.244001
lfemur -37.224159 -7.365396 -13.255633
ltibia 24.617784
lfoot -19.147901 19.656574
ltoes -9.984758
5
root 9.249270 17.016300 -33.220600 1.345482 1.634016 0.150096
lowerback -2.288478 2.254014 5.975296
upperback -3.024673 2.988775 -0.093879
thorax -1.524138 1.389868 -3.248192
lowerneck -16.443223 0.536822 -0.940314
upperneck 36.980258 1.625533 -1.052800
head 16.338438 0.405153 -0.001472
rclavicle -0.000000 0.000000
rhumerus -33.667954 -4.948679 -77.585911
rradius 34.987213
rwrist -14.025606
rhand -7.083906 12.517305
rfingers 7.125020
rthumb 18.786192 -16.557277
lclavicle -0.000000 0.000000
lhumerus -60.653959 31.460503 45.312466
lradius 24.691633
lwrist -8.042593
lhand -1.756700 22.608918
lfingers 7.125020
lthumb 23.878558 51.029297
rfemur 11.042818 14.048578 30.114877
rtibia 7.055296
rfoot -9.320384 -15.352294
rtoes -10.347273
lfemur -37.134160 -8.579630 -12.610213
ltibia 24.642565
lfoot -18.620478 19.774366
ltoes -8.783341
6
root 9.246830 17.017700 -32.897400 1.005262 1.634016 0.114750
lowerback -2.652306 2.177989 3.680832
upperback -3.281762 2.908296 -0.792426
thorax -1.647376 1.381516 -2.803074
lowerneck -16.232179 0.332230 -0.959538
upperneck 37.476180 1.091519 -0.556007
head 16.566951 0.256793 0.126715
rclavicle -0.000000 0.000000
rhumerus -35.361543 -6.709471 -77.145670
rradius 32.837456
rwrist -12.019667
rhand -7.141965 12.987704
rfingers 7.125020
rthumb 18.728861 -16.088861
lclavicle -0.000000 0.000000
lhumerus -58.345039 31.191144 46.407710
lradius 25.413551
lwrist -6.012128
lhand -2.834436 23.291038
lfingers 7.125020
lthumb 22.849696 51.862393
rfemur 8.515813 12.363202 27.673454
rtibia 15.532366
rfoot -6.066372 -14.127788
rtoes -12.160386
lfemur -35.157945 -8.068762 -15.854490
ltibia 26.569127
lfoot -15.803101 18.913235
ltoes -7.573903
